<svg width="138" height="28" viewBox="0 0 138 28" fill="none" xmlns="http://www.w3.org/2000/svg">
<g clip-path="url(#clip0_299_646)">
<path d="M137.93 6.10089H48.1035V27.7165H137.93V6.10089Z" fill="#EE7267"/>
<path d="M2.87581 0.461387L2.83166 0.290794L2.78288 0.0827538L2.64835 0C2.54988 0.000924623 2.41858 0.0453065 2.24799 0.131296L2.24267 0.133377L2.23897 0.138C1.69761 0.628744 1.33331 1.3125 1.14006 2.17541C0.946814 3.03646 0.850422 4.12521 0.850422 5.44002C0.850422 6.22502 0.927397 7.6642 1.07857 9.76148C1.14098 10.6507 1.17473 11.3373 1.17473 11.8243C1.17473 12.7291 1.04737 13.9137 0.793789 15.3744C0.264904 18.4437 0 20.4242 0 21.3207C0 21.9797 0.0654171 22.6593 0.194633 23.3594C0.323387 24.0605 0.529347 24.6914 0.806503 25.2429L0.821759 25.2755L0.856201 25.2609C1.36359 25.0506 1.70986 24.8298 1.89525 24.5998C2.08179 24.3712 2.17448 24.1132 2.17448 23.8296C2.17448 23.6343 2.15622 23.4121 2.11669 23.1567C2.01707 22.5014 1.9676 22.0162 1.9676 21.7021C1.9676 20.6616 1.99464 19.7768 2.04527 19.0359C2.0952 18.2946 2.18234 17.5461 2.30416 16.7851C2.58802 15.0452 2.77595 13.2871 2.8698 11.5081C2.96134 9.72703 3.0078 7.76891 3.0078 5.62887V3.08524V0.546915V0.507849H2.96804L2.87581 0.461387Z" fill="white"/>
<path d="M7.52271 8.31606V9.05969L7.57218 9.04536C8.25201 8.8535 8.7483 8.47787 9.0458 7.91477C9.27996 7.46379 9.39762 6.86764 9.39762 6.12077V5.67534V5.13582V5.08728L9.35 5.09722C8.73836 5.22759 8.24415 5.47932 7.881 5.85679C7.51716 6.23335 7.33594 6.7049 7.33594 7.26453C7.33594 7.58561 7.39835 7.93627 7.52271 8.31606Z" fill="white"/>
<path d="M12.0946 20.408L12.0675 20.3674L12.0188 20.347L11.9723 20.3662C11.9316 20.3976 11.8785 20.4668 11.7987 20.581C11.7201 20.694 11.6186 20.8503 11.4931 21.0502C11.2106 21.5072 10.9423 21.8234 10.697 22.009V22.01C10.4483 22.2009 10.0789 22.4376 9.59348 22.7254C9.17393 22.9746 8.86534 23.0966 8.68319 23.0955L8.61176 23.0888L8.60852 23.0876H8.29091C8.20701 22.6974 8.1684 22.2906 8.1684 21.8599C8.16748 21.3618 8.39031 20.1277 8.82211 18.164C9.0112 17.3207 9.10713 16.5776 9.10713 15.94C9.10713 15.4946 9.06274 15.0686 8.98508 14.6671L8.97745 14.6252L8.9363 14.6368C7.94141 14.9181 7.18299 15.861 6.65133 17.4539C6.22531 18.7472 6.01172 20.1977 6.01172 21.8075C6.01172 21.8958 6.01912 22.053 6.02836 22.2862C6.03969 22.519 6.05564 22.8063 6.07829 23.1429V23.1449C6.1733 23.8687 6.38249 24.4158 6.71281 24.7834C7.0429 25.1516 7.49296 25.3361 8.04982 25.3361C8.58587 25.3361 9.12747 25.1675 9.67115 24.8377C10.2201 24.5041 10.6938 24.0608 11.0974 23.5011C11.3112 23.2018 11.5396 22.773 11.7825 22.2215C12.0252 21.6651 12.1514 21.2603 12.1514 20.9926C12.1514 20.789 12.1431 20.6367 12.1276 20.5324L12.0946 20.408Z" fill="white"/>
<path d="M31.1991 21.1306L30.9041 21.1612H30.8849L30.8667 21.1683L30.636 21.2666C30.4975 21.2712 30.3108 21.2721 30.0777 21.2721C29.3122 21.2733 28.3288 21.5322 27.1132 22.0389V22.0377C26.29 22.3745 25.7427 22.5959 25.4687 22.7011C24.414 23.0596 23.4339 23.3262 22.5291 23.5062C21.6258 23.6849 20.6806 23.7748 19.6901 23.7748C18.6827 23.7748 17.6866 23.6486 16.7015 23.3941C16.0773 23.2291 15.6467 22.9961 15.4061 22.7148C15.1557 22.4242 15.0348 22.0985 15.0348 21.7196C15.0337 21.2451 15.2364 20.6686 15.6543 19.998C15.9701 19.4973 16.3374 19.0359 16.7558 18.6175C17.6661 17.7123 18.5447 16.9872 19.387 16.4382L19.388 16.437C20.3958 15.7688 21.3951 15.3312 22.3777 15.1231L22.3812 15.122L22.3844 15.1208C22.485 15.0926 22.7478 15.0552 23.1489 15.017C23.5515 14.9773 24.0975 14.9343 24.7871 14.8869C25.4817 14.8384 26.0397 14.7748 26.4662 14.6971C26.8691 14.6222 27.1499 14.5374 27.3302 14.422H27.6728L27.7042 14.3915L28.1208 13.9847L28.0729 13.9114C27.4444 12.9322 26.4537 12.4415 25.1615 12.4436C24.8786 12.4447 24.4399 12.5566 23.8224 12.7797C23.2099 13.0021 22.8167 13.137 22.6616 13.1738H22.6604C22.0587 13.3245 21.4448 13.5328 20.8177 13.797C20.1921 14.0649 19.6253 14.3215 19.1145 14.5783H19.1133L19.112 14.5795C18.4291 14.9419 17.7495 15.3786 17.0676 15.8887H17.0665C16.6608 16.186 16.0447 16.6968 15.2216 17.4157C14.7951 17.7572 14.4299 18.1124 14.1294 18.4737C13.8275 18.8406 13.5901 19.2053 13.4186 19.5761L13.4165 19.5773C13.097 20.283 12.9297 20.9429 12.9297 21.5557C12.9285 22.4048 13.2212 23.1399 13.8014 23.7379C14.379 24.3414 15.1946 24.7489 16.238 24.9734C17.2683 25.1974 18.3415 25.3067 19.4467 25.3067C20.2555 25.3067 21.1078 25.245 22.0023 25.1167C22.8923 24.9916 23.7233 24.8321 24.4872 24.6401L24.4884 24.6389C25.4507 24.3844 26.4639 23.9819 27.5265 23.4249H27.5283C28.3973 22.9579 29.2689 22.4177 30.1397 21.8026C30.3413 21.6692 30.5246 21.5629 30.6905 21.4813L30.9141 21.4665H30.9178V21.4654C31.0444 21.4531 31.1642 21.4025 31.2809 21.326L31.1991 21.1306Z" fill="white"/>
<path d="M45.6315 23.1754C45.1206 22.4485 44.3606 21.688 43.3511 20.8895V20.8905C42.7356 20.4009 41.8606 19.7116 40.7178 18.8249C40.2335 18.3968 39.8729 18.0299 39.6379 17.732C39.3993 17.4333 39.2939 17.1991 39.2971 17.0646C39.296 16.9361 39.3519 16.7604 39.474 16.5489C39.5949 16.3365 39.7814 16.0871 40.0315 15.8044C41.0514 14.6567 41.8066 13.635 42.2985 12.7323C42.918 11.6029 43.2309 10.4794 43.2309 9.38053V9.22705L43.0874 9.27882C42.2996 9.56153 41.6424 10.1235 41.1258 10.9425L41.1246 10.9438V10.9455C40.8475 11.4168 40.4268 12.1754 39.857 13.2325C39.2689 14.0924 38.3841 15.116 37.2038 16.2983C36.5716 16.9294 35.6215 17.8508 34.3622 19.0546C34.2196 18.3956 34.1216 17.8175 34.0739 17.3316V17.333C34.024 16.799 33.9953 16.0834 33.9953 15.1971C33.9953 14.333 34.0656 13.0397 34.1992 11.3218C34.334 9.60452 34.4038 8.31121 34.4038 7.43443C34.4038 6.30662 34.3236 5.2225 34.1606 4.17537C33.9993 3.12869 33.7221 2.14281 33.3328 1.22466L33.2855 1.11371L33.1805 1.17288C32.847 1.36058 32.5901 1.5959 32.4198 1.87837C32.2487 2.16108 32.1641 2.49001 32.1641 2.85501C32.1641 3.1666 32.2293 3.60464 32.3562 4.17883V4.17976C32.6345 5.40419 32.7698 6.20145 32.7688 6.53685C32.7688 7.7636 32.7261 9.01068 32.6433 10.2793C32.5573 11.5444 32.3673 13.4708 32.0703 16.0517C31.9001 17.1529 31.7369 18.2971 31.5793 19.4818C31.4166 20.6676 31.3398 21.7441 31.3398 22.7018V23.2284C31.3398 23.4498 31.3475 23.6569 31.3703 23.85C31.3703 23.8812 31.3585 23.9988 31.3398 24.1828C31.3195 24.3751 31.3047 24.512 31.3047 24.6079C31.3047 24.7302 31.3338 24.8405 31.3803 24.9389L31.3886 24.9558L31.4018 24.9692L32.1558 25.7246L32.2261 25.6872C32.5633 25.509 32.8266 25.2406 33.0122 24.8915C33.1985 24.5423 33.3079 24.1139 33.349 23.6082V23.607C33.4202 22.6295 33.6542 21.9115 34.0376 21.4536L34.0386 21.4524L34.0397 21.4515C34.2695 21.1584 34.8021 20.7899 35.6204 20.3718C36.5434 19.8919 37.312 19.6596 37.9181 19.6596C38.1219 19.6596 38.3106 19.6866 38.4867 19.7451C38.8138 19.8743 39.3857 20.2543 40.1774 20.8789C40.9723 21.5067 41.9931 22.3817 43.2425 23.5023C44.3289 24.4801 45.3356 25.1065 46.2681 25.3631L46.4038 25.4012V25.26C46.4038 24.5973 46.1414 23.9024 45.6315 23.1754Z" fill="white"/>
<path d="M51.5059 10.5141H55.1692V21.5403H60.8406V24.2566H51.5059V10.5141Z" fill="white"/>
<path d="M66.2925 10.5141H62.6289V24.2573H66.2925V10.5141Z" fill="white"/>
<path d="M72.5938 18.4291H73.7168C74.9773 18.4291 76.4144 18.5671 76.4144 20.0632C76.4144 21.4614 75.0159 21.6579 73.6768 21.6579H72.5938V18.4291ZM68.9316 24.2573H74.7207C77.1823 24.2573 80.077 23.5673 80.077 20.28C80.077 18.6057 79.1316 17.6222 77.3011 17.2477V17.2082C78.8362 16.6964 79.7229 15.732 79.7229 13.9988C79.7229 11.6359 77.8124 10.5141 75.2533 10.5141H68.9316V24.2573ZM72.5938 13.1137H73.6576C74.879 13.1137 76.0593 13.2314 76.0593 14.4916C76.0593 15.6525 74.8206 15.9479 73.6186 15.9479H72.5938V13.1137Z" fill="white"/>
<path d="M85.7276 13.1132H86.692C88.0911 13.1132 89.3708 13.3497 89.3708 14.6292C89.3708 16.1846 87.8739 16.2246 86.692 16.2246H85.7276V13.1132ZM82.0645 24.2568H85.7276V18.8235H86.4955C87.8542 18.8235 88.3274 19.4136 89.0743 21.7767L89.8627 24.2568H93.6833L92.3433 20.516C91.6549 18.8429 91.5754 17.7995 90.3939 17.4842V17.4446C92.1671 17.0304 93.033 15.8104 93.033 13.9794C93.033 11.616 91.0442 10.5144 88.6018 10.5144H82.0645V24.2568Z" fill="white"/>
<path d="M103.273 18.7245H99.8271L101.6 13.3502H101.64L103.273 18.7245ZM94.1758 24.2577H97.8981L98.9804 21.3234H104.139L105.164 24.2577H109.181L103.883 10.5144H99.3944L94.1758 24.2577Z" fill="white"/>
<path d="M114.183 13.1132H115.148C116.546 13.1132 117.826 13.3497 117.826 14.6292C117.826 16.1846 116.329 16.2246 115.148 16.2246H114.183V13.1132ZM110.52 24.2568H114.183V18.8235H114.952C116.31 18.8235 116.783 19.4136 117.531 21.7767L118.319 24.2568H122.139L120.8 20.516C120.11 18.8429 120.031 17.7995 118.851 17.4842V17.4446C120.622 17.0304 121.489 15.8104 121.489 13.9794C121.489 11.616 119.499 10.5144 117.059 10.5144H110.52V24.2568Z" fill="white"/>
<path d="M127.062 19.0789L121.98 10.5139H126.194L128.892 16.0272L131.552 10.5139H135.765L130.724 19.0789V24.2563H127.062V19.0789Z" fill="white"/>
</g>
<defs>
<clipPath id="clip0_299_646">
<rect width="138" height="27.7387" fill="white"/>
</clipPath>
</defs>
</svg>
